<svg xmlns="http://www.w3.org/2000/svg" viewBox="0 0 74 74" enable-background="new 0 0 74 74"><style type="text/css">.st0{opacity:5.000000e-02;} .st1{fill:#910811;} .st2{fill:#FFFFFF;}</style><path d="M39 20.3c0-4.6 1.3-8.2 3.8-11 2.5-2.7 5.8-4 9.8-4 4.6 0 8.5 1.7 11.5 5.1 3.1 3.4 4.7 8.6 4.7 15.6 0 6.6-.8 12.3-2.6 17.1-1.7 4.8-3.8 8.9-6.1 12.3-2.4 3.4-4.8 6.1-7.4 8.1-2.5 2-4.6 3.5-6.4 4.5l-6.9-9.9c3.4-2.4 6.4-5.6 8.9-9.6s3.7-8.7 3.5-14.1c-3.8.6-6.8-.5-9.1-3.1-2.5-2.8-3.7-6.4-3.7-11zm-37.8 0c0-4.6 1.3-8.2 3.8-11 2.5-2.7 5.8-4 9.8-4 4.6 0 8.5 1.7 11.5 5.1 3.1 3.4 4.6 8.6 4.6 15.6 0 6.6-.8 12.3-2.5 17.1-1.7 4.8-3.8 8.9-6.1 12.3-2.4 3.4-4.8 6.1-7.4 8.1-2.5 2-4.6 3.5-6.4 4.5l-6.9-9.9c3.4-2.4 6.4-5.6 8.8-9.6 2.5-4 3.7-8.7 3.5-14.1-3.8.6-6.9-.5-9.2-3.2-2.3-2.7-3.5-6.3-3.5-10.9z" class="st1"/><path d="M43 21.3c0-4.6 1.3-8.2 3.8-11 2.5-2.7 5.8-4 9.8-4 4.6 0 8.5 1.7 11.5 5.1 3.1 3.4 4.7 8.6 4.7 15.6 0 6.6-.8 12.3-2.6 17.1-1.7 4.8-3.8 8.9-6.1 12.3-2.4 3.4-4.8 6.1-7.4 8.1-2.5 2-4.6 3.5-6.4 4.5l-6.9-9.9c3.4-2.4 6.4-5.6 8.9-9.6s3.7-8.7 3.5-14.1c-3.8.6-6.8-.5-9.1-3.1-2.5-2.8-3.7-6.4-3.7-11zm-37.8 0c0-4.6 1.3-8.2 3.8-11 2.5-2.7 5.8-4 9.8-4 4.6 0 8.5 1.7 11.5 5.1 3.1 3.4 4.6 8.6 4.6 15.6 0 6.6-.8 12.3-2.5 17.1-1.7 4.8-3.8 8.9-6.1 12.3-2.4 3.4-4.8 6.1-7.4 8.1-2.5 2-4.6 3.5-6.4 4.5l-6.9-9.9c3.4-2.4 6.4-5.6 8.8-9.6 2.5-4 3.7-8.7 3.5-14.1-3.8.6-6.8-.5-9.1-3.1-2.4-2.8-3.6-6.4-3.6-11z" class="st2"/></svg>