<?xml version="1.0" encoding="utf-8"?>
<!-- Generator: Adobe Illustrator 21.1.0, SVG Export Plug-In . SVG Version: 6.00 Build 0)  -->
<svg version="1.1" id="Layer_1" xmlns="http://www.w3.org/2000/svg" xmlns:xlink="http://www.w3.org/1999/xlink" x="0px" y="0px"
	 viewBox="0 0 74 74" style="enable-background:new 0 0 74 74;" xml:space="preserve">
<style type="text/css">
	.st0{opacity:5.000000e-02;}
	.st1{fill:#910811;}
	.st2{fill:#FFFFFF;}
</style>
<g>
	<g class="st0">
		<path class="st1" d="M39,20.3c0-4.6,1.3-8.2,3.8-11c2.5-2.7,5.8-4,9.8-4c4.6,0,8.5,1.7,11.5,5.1c3.1,3.4,4.7,8.6,4.7,15.6
			c0,6.6-0.8,12.3-2.6,17.1c-1.7,4.8-3.8,8.9-6.1,12.3c-2.4,3.4-4.8,6.1-7.4,8.1c-2.5,2-4.6,3.5-6.4,4.5l-6.9-9.9
			c3.4-2.4,6.4-5.6,8.9-9.6c2.5-4,3.7-8.7,3.5-14.1c-3.8,0.6-6.8-0.5-9.1-3.1C40.2,28.5,39,24.9,39,20.3z M1.2,20.3
			c0-4.6,1.3-8.2,3.8-11c2.5-2.7,5.8-4,9.8-4c4.6,0,8.5,1.7,11.5,5.1c3.1,3.4,4.6,8.6,4.6,15.6c0,6.6-0.8,12.3-2.5,17.1
			c-1.7,4.8-3.8,8.9-6.1,12.3c-2.4,3.4-4.8,6.1-7.4,8.1c-2.5,2-4.6,3.5-6.4,4.5l-6.9-9.9c3.4-2.4,6.4-5.6,8.8-9.6
			c2.5-4,3.7-8.7,3.5-14.1C10.1,35,7,33.9,4.7,31.2C2.4,28.5,1.2,24.9,1.2,20.3z"/>
	</g>
	<g>
		<g>
			<path class="st2" d="M43,21.3c0-4.6,1.3-8.2,3.8-11c2.5-2.7,5.8-4,9.8-4c4.6,0,8.5,1.7,11.5,5.1c3.1,3.4,4.7,8.6,4.7,15.6
				c0,6.6-0.8,12.3-2.6,17.1c-1.7,4.8-3.8,8.9-6.1,12.3c-2.4,3.4-4.8,6.1-7.4,8.1c-2.5,2-4.6,3.5-6.4,4.5l-6.9-9.9
				c3.4-2.4,6.4-5.6,8.9-9.6c2.5-4,3.7-8.7,3.5-14.1c-3.8,0.6-6.8-0.5-9.1-3.1C44.2,29.5,43,25.9,43,21.3z M5.2,21.3
				c0-4.6,1.3-8.2,3.8-11c2.5-2.7,5.8-4,9.8-4c4.6,0,8.5,1.7,11.5,5.1c3.1,3.4,4.6,8.6,4.6,15.6c0,6.6-0.8,12.3-2.5,17.1
				c-1.7,4.8-3.8,8.9-6.1,12.3c-2.4,3.4-4.8,6.1-7.4,8.1c-2.5,2-4.6,3.5-6.4,4.5l-6.9-9.9c3.4-2.4,6.4-5.6,8.8-9.6
				c2.5-4,3.7-8.7,3.5-14.1c-3.8,0.6-6.8-0.5-9.1-3.1C6.4,29.5,5.2,25.9,5.2,21.3z"/>
		</g>
	</g>
</g>
</svg>
