<?xml version="1.0" encoding="utf-8"?>
<!-- Generator: Adobe Illustrator 21.1.0, SVG Export Plug-In . SVG Version: 6.00 Build 0)  -->
<svg version="1.1" id="Layer_1" xmlns="http://www.w3.org/2000/svg" xmlns:xlink="http://www.w3.org/1999/xlink" x="0px" y="0px"
	 viewBox="0 0 739.5 258" style="enable-background:new 0 0 739.5 258;" xml:space="preserve">
<style type="text/css">
	.st0{fill:#CFECEE;}
	.st1{fill:#109EAB;}
	.st2{fill:#D2D2DC;}
	.st3{fill:#1F1E4E;}
	.st4{fill:#E9CECF;}
	.st5{fill:#910811;}
</style>
<g>
	
		<image style="overflow:visible;opacity:0.25;" width="244" height="243" xlink:href="D65ACF786EC26F05.png"  transform="matrix(1 0 0 1 10.3891 12.4036)">
	</image>
	<g>
		<g>
			<g>
				<path class="st0" d="M213.3,125.5h30.1c0,15-3,30.1-8.8,44c-5.8,13.9-14.3,26.7-25,37.3c-10.6,10.6-23.4,19.2-37.3,25
					c-13.9,5.8-29,8.7-44,8.8c-15,0-30.1-3-44-8.8c-13.9-5.8-26.7-14.3-37.3-25c-10.6-10.6-19.2-23.4-25-37.3
					c-5.8-13.9-8.7-29-8.8-44c0-15,3-30.1,8.8-44c5.8-13.9,14.3-26.7,25-37.3c10.6-10.6,23.4-19.2,37.3-25c13.9-5.8,29-8.7,44-8.8
					c15,0,30.1,3,44,8.8c13.9,5.8,26.7,14.3,37.3,25c10.6,10.6,19.2,23.4,25,37.3c5.8,13.9,8.7,29,8.8,44H213.3
					c0-11.2-2.2-22.2-6.5-32.5c-4.2-10.3-10.6-19.7-18.4-27.6c-7.9-7.9-17.3-14.2-27.6-18.4c-10.3-4.3-21.3-6.4-32.5-6.5
					c-11.2,0-22.2,2.2-32.5,6.5c-10.3,4.2-19.7,10.6-27.6,18.4C60.5,73.4,54.2,82.8,49.9,93c-4.3,10.3-6.4,21.3-6.5,32.5
					c0,11.2,2.2,22.2,6.5,32.5c4.2,10.3,10.6,19.7,18.4,27.6c7.9,7.9,17.3,14.2,27.6,18.4c10.3,4.3,21.3,6.4,32.5,6.5
					c11.2,0,22.2-2.2,32.5-6.5c10.3-4.2,19.7-10.6,27.6-18.4c7.9-7.9,14.2-17.3,18.4-27.6C211.1,147.8,213.3,136.7,213.3,125.5z"/>
				<path class="st1" d="M105.4,207.3l-8.1,29c-20.5-5.7-39.4-17.3-53.7-33c-14.4-15.7-24.3-35.4-28.3-56.4l-0.7-3.9l-0.5-4
					c-0.1-0.7-0.2-1.3-0.2-2l-0.2-2c-0.1-1.3-0.2-2.7-0.3-4c-0.1-2.7-0.2-5.3-0.1-8c0-1.3,0-2.7,0.1-4l0.3-4
					c0.5-5.3,1.3-10.6,2.5-15.8c0.6-2.6,1.3-5.2,2.1-7.7c0.4-1.3,0.8-2.5,1.3-3.8l0.6-1.9l0.7-1.9c7.6-19.9,20.9-37.5,37.9-50.4
					c8.5-6.4,17.8-11.7,27.8-15.5c2.5-1,5-1.8,7.5-2.7c2.6-0.7,5.1-1.5,7.7-2.1c5.2-1.3,10.5-2,15.7-2.6c21.1-2,42.9,2,62,11.5
					l3.6,1.8l3.5,2c1.2,0.6,2.3,1.4,3.4,2.1c1.1,0.7,2.3,1.4,3.3,2.2c4.4,3,8.5,6.3,12.5,9.9c3.9,3.6,7.6,7.4,11,11.5
					c3.4,4.1,6.5,8.4,9.3,12.9c2.8,4.5,5.3,9.2,7.4,14.1l0.8,1.8l0.7,1.9c0.5,1.2,1,2.5,1.4,3.7c0.9,2.5,1.8,5,2.4,7.6
					c3,10.2,4.3,20.9,4.4,31.5h-30.1c0-15.8-4.4-31.4-12.7-44.7c-2-3.4-4.4-6.5-6.9-9.6c-2.5-3-5.3-5.8-8.1-8.5
					c-2.9-2.6-6-5.1-9.2-7.3c-0.8-0.6-1.6-1.1-2.5-1.6c-0.8-0.5-1.6-1.1-2.5-1.5l-2.6-1.5l-2.6-1.3c-14-7-30-10-45.7-8.5
					c-15.6,1.4-30.8,7.3-43.3,16.9c-12.6,9.5-22.4,22.5-28,37.2l-0.5,1.4l-0.5,1.4c-0.3,0.9-0.6,1.9-0.9,2.8
					c-0.5,1.9-1.1,3.8-1.5,5.7c-0.9,3.8-1.5,7.7-1.9,11.6l-0.2,2.9c-0.1,1-0.1,2-0.1,3c-0.1,2,0,3.9,0.1,5.9c0.1,1,0.1,2,0.2,2.9
					l0.1,1.5c0,0.5,0.1,1,0.2,1.5l0.4,2.9l0.5,2.9c2.9,15.4,10.2,30,20.9,41.6C76.4,194.6,90.3,203.1,105.4,207.3z"/>
			</g>
		</g>
	</g>
</g>
<g>
	
		<image style="overflow:visible;opacity:0.25;" width="243" height="243" xlink:href="D65ACF786EC26F0C.png"  transform="matrix(1 0 0 1 251.3891 12.4036)">
	</image>
	<g>
		<g>
			<g>
				<path class="st2" d="M454.2,125.5h30.1c0,15-3,30.1-8.8,44c-5.8,13.9-14.3,26.7-25,37.3c-10.6,10.6-23.4,19.2-37.3,25
					c-13.9,5.8-29,8.7-44,8.8c-15,0-30.1-3-44-8.8c-13.9-5.8-26.7-14.3-37.3-25c-10.6-10.6-19.2-23.4-25-37.3
					c-5.8-13.9-8.7-29-8.8-44c0-15,3-30.1,8.8-44c5.8-13.9,14.3-26.7,25-37.3c10.6-10.6,23.4-19.2,37.3-25c13.9-5.8,29-8.7,44-8.8
					c15,0,30.1,3,44,8.8c13.9,5.8,26.7,14.3,37.3,25c10.6,10.6,19.2,23.4,25,37.3c5.8,13.9,8.7,29,8.8,44H454.2
					c0-11.2-2.2-22.2-6.5-32.5c-4.2-10.3-10.6-19.7-18.4-27.6c-7.9-7.9-17.3-14.2-27.6-18.4c-10.3-4.3-21.3-6.4-32.5-6.5
					c-11.2,0-22.2,2.2-32.5,6.5c-10.3,4.2-19.7,10.6-27.6,18.4c-7.9,7.9-14.2,17.3-18.4,27.6c-4.3,10.3-6.4,21.3-6.5,32.5
					c0,11.2,2.2,22.2,6.5,32.5c4.2,10.3,10.6,19.7,18.4,27.6c7.9,7.9,17.3,14.2,27.6,18.4c10.3,4.3,21.3,6.4,32.5,6.5
					c11.2,0,22.2-2.2,32.5-6.5c10.3-4.2,19.7-10.6,27.6-18.4c7.9-7.9,14.2-17.3,18.4-27.6C452,147.8,454.2,136.7,454.2,125.5z"/>
				<path class="st3" d="M407,49.5l13.4-27l3.6,1.8l3.5,2c1.2,0.6,2.3,1.4,3.4,2.1c1.1,0.7,2.3,1.4,3.3,2.2c4.4,3,8.5,6.3,12.5,9.9
					c3.9,3.6,7.6,7.4,11,11.5c3.4,4.1,6.5,8.4,9.3,12.9c2.8,4.5,5.3,9.2,7.4,14.1l0.8,1.8l0.7,1.9c0.5,1.2,1,2.5,1.4,3.7
					c0.9,2.5,1.8,5,2.4,7.6c3,10.2,4.3,20.9,4.4,31.5h-30.1c0-15.8-4.4-31.4-12.7-44.7c-2-3.4-4.4-6.5-6.9-9.6
					c-2.5-3-5.3-5.8-8.1-8.5c-2.9-2.6-6-5.1-9.2-7.3c-0.8-0.6-1.6-1.1-2.5-1.6c-0.8-0.5-1.6-1.1-2.5-1.5l-2.6-1.5L407,49.5z"/>
			</g>
		</g>
	</g>
</g>
<g>
	
		<image style="overflow:visible;opacity:0.25;" width="243" height="243" xlink:href="D65ACF786EC26F0D.png"  transform="matrix(1 0 0 1 492.3891 12.4036)">
	</image>
	<g>
		<g>
			<g>
				<path class="st4" d="M695.1,125.5h30.1c0,15-3,30.1-8.8,44c-5.8,13.9-14.3,26.7-25,37.3c-10.6,10.6-23.4,19.2-37.3,25
					c-13.9,5.8-29,8.7-44,8.8c-15,0-30.1-3-44-8.8c-13.9-5.8-26.7-14.3-37.3-25c-10.6-10.6-19.2-23.4-25-37.3
					c-5.8-13.9-8.7-29-8.8-44c0-15,3-30.1,8.8-44c5.8-13.9,14.3-26.7,25-37.3c10.6-10.6,23.4-19.2,37.3-25c13.9-5.8,29-8.7,44-8.8
					c15,0,30.1,3,44,8.8c13.9,5.8,26.7,14.3,37.3,25c10.6,10.6,19.2,23.4,25,37.3c5.8,13.9,8.7,29,8.8,44H695.1
					c0-11.2-2.2-22.2-6.5-32.5c-4.2-10.3-10.6-19.7-18.4-27.6c-7.9-7.9-17.3-14.2-27.6-18.4c-10.3-4.3-21.3-6.4-32.5-6.5
					c-11.2,0-22.2,2.2-32.5,6.5c-10.3,4.2-19.7,10.6-27.6,18.4c-7.9,7.9-14.2,17.3-18.4,27.6c-4.3,10.3-6.4,21.3-6.5,32.5
					c0,11.2,2.2,22.2,6.5,32.5c4.2,10.3,10.6,19.7,18.4,27.6c7.9,7.9,17.3,14.2,27.6,18.4c10.3,4.3,21.3,6.4,32.5,6.5
					c11.2,0,22.2-2.2,32.5-6.5c10.3-4.2,19.7-10.6,27.6-18.4c7.9-7.9,14.2-17.3,18.4-27.6C692.9,147.8,695.1,136.7,695.1,125.5z"/>
				<path class="st5" d="M558.9,57.9l-18.2-24c8.5-6.4,17.8-11.7,27.8-15.5c2.5-1,5-1.8,7.5-2.7c2.6-0.7,5.1-1.5,7.7-2.1
					c5.2-1.3,10.5-2,15.7-2.6c21.1-2,42.9,2,62,11.5l3.6,1.8l3.5,2c1.2,0.6,2.3,1.4,3.4,2.1c1.1,0.7,2.3,1.4,3.3,2.2
					c4.4,3,8.5,6.3,12.5,9.9c3.9,3.6,7.6,7.4,11,11.5c3.4,4.1,6.5,8.4,9.3,12.9c2.8,4.5,5.3,9.2,7.4,14.1l0.8,1.8l0.7,1.9
					c0.5,1.2,1,2.5,1.4,3.7c0.9,2.5,1.8,5,2.4,7.6c3,10.2,4.3,20.9,4.4,31.5h-30.1c0-15.8-4.4-31.4-12.7-44.7
					c-2-3.4-4.4-6.5-6.9-9.6c-2.5-3-5.3-5.8-8.1-8.5c-2.9-2.6-6-5.1-9.2-7.3c-0.8-0.6-1.6-1.1-2.5-1.6c-0.8-0.5-1.6-1.1-2.5-1.5
					l-2.6-1.5l-2.6-1.3c-14-7-30-10-45.7-8.5C586.5,42.4,571.4,48.3,558.9,57.9z"/>
			</g>
		</g>
	</g>
</g>
</svg>
