<?xml version="1.0" encoding="utf-8"?>
<!-- Generator: Adobe Illustrator 21.1.0, SVG Export Plug-In . SVG Version: 6.00 Build 0)  -->
<svg version="1.1" id="Layer_1" xmlns="http://www.w3.org/2000/svg" xmlns:xlink="http://www.w3.org/1999/xlink" x="0px" y="0px"
	 viewBox="0 0 64 64" style="enable-background:new 0 0 64 64;" xml:space="preserve">
<style type="text/css">
	.st0{fill:#FFFFFF;stroke:#07074E;stroke-width:5;stroke-miterlimit:10;}
	.st1{fill:#07074E;}
</style>
<circle class="st0" cx="32" cy="32.4" r="28.1"/>
<path class="st1" d="M46.7,45.2c0,2.7-2.2,4.8-4.8,4.8c-2.7,0-4.8-2.2-4.8-4.8c0-0.5,0.1-1,0.2-1.4l-11.8-8
	c-0.9,0.9-2.1,1.4-3.4,1.4c-2.7,0-4.8-2.2-4.8-4.8c0-2.7,2.2-4.8,4.8-4.8c1.3,0,2.5,0.5,3.3,1.3l12-7.7c-0.2-0.5-0.3-1-0.3-1.6
	c0-2.6,2.1-4.7,4.8-4.7s4.8,2.2,4.8,4.8s-2.2,4.8-4.8,4.8c-1.3,0-2.5-0.5-3.3-1.3l-12,7.7c0.2,0.5,0.3,1,0.3,1.6
	c0,0.5-0.1,1-0.2,1.4l11.9,8c0.9-0.9,2.1-1.4,3.4-1.4C44.5,40.4,46.7,42.5,46.7,45.2z"/>
</svg>
