<?xml version="1.0" encoding="utf-8"?>
<!-- Generator: Adobe Illustrator 21.1.0, SVG Export Plug-In . SVG Version: 6.00 Build 0)  -->
<svg version="1.1" id="Layer_1" xmlns="http://www.w3.org/2000/svg" xmlns:xlink="http://www.w3.org/1999/xlink" x="0px" y="0px"
	 viewBox="0 0 64 64" style="enable-background:new 0 0 64 64;" xml:space="preserve">
<style type="text/css">
	.st0{fill:#07074E;}
	.st1{fill:#FFFFFF;}
</style>
<circle class="st0" cx="32" cy="32.4" r="30.1"/>
<path class="st1" d="M47.7,46.1c0,2.9-2.3,5.2-5.2,5.2c-2.9,0-5.2-2.3-5.2-5.2c0-0.5,0.1-1,0.3-1.6L25,36c-0.9,0.9-2.2,1.5-3.6,1.5
	c-2.9,0-5.2-2.3-5.2-5.2s2.3-5.2,5.2-5.2c1.4,0,2.6,0.5,3.6,1.4l12.9-8.3c-0.2-0.5-0.3-1.1-0.3-1.7c0-2.8,2.3-5.1,5.1-5.1
	c2.9,0,5.2,2.3,5.2,5.2s-2.3,5.2-5.2,5.2c-1.4,0-2.6-0.5-3.6-1.4l-12.9,8.3c0.2,0.5,0.3,1.1,0.3,1.7c0,0.5-0.1,1-0.3,1.6l12.7,8.6
	c0.9-0.9,2.2-1.5,3.6-1.5C45.4,41,47.7,43.2,47.7,46.1z"/>
</svg>
