<?xml version="1.0" encoding="utf-8"?>
<!-- Generator: Adobe Illustrator 21.1.0, SVG Export Plug-In . SVG Version: 6.00 Build 0)  -->
<svg version="1.1"
	 id="Layer_1" xmlns:cc="http://creativecommons.org/ns#" xmlns:dc="http://purl.org/dc/elements/1.1/" xmlns:inkscape="http://www.inkscape.org/namespaces/inkscape" xmlns:rdf="http://www.w3.org/1999/02/22-rdf-syntax-ns#" xmlns:sodipodi="http://sodipodi.sourceforge.net/DTD/sodipodi-0.dtd" xmlns:svg="http://www.w3.org/2000/svg"
	 xmlns="http://www.w3.org/2000/svg" xmlns:xlink="http://www.w3.org/1999/xlink" x="0px" y="0px" viewBox="0 0 88 88"
	 style="enable-background:new 0 0 88 88;" xml:space="preserve">
<style type="text/css">
	.st0{fill:#FFFFFF;}
	.st1{fill:#202E5D;}
</style>
<circle class="st0" cx="44" cy="44" r="42.8"/>
<path class="st1" d="M44,0C19.7,0,0,19.7,0,44s19.7,44,44,44s44-19.7,44-44S68.3,0,44,0z M44,4c22.1,0,40,17.9,40,40S66.1,84,44,84
	S4,66.1,4,44S21.9,4,44,4z M43.7,36.3c-0.5,0.1-0.9,0.3-1.2,0.7l-18,21.7c-0.7,0.9-0.6,2.3,0.2,3.1c0.8,0.8,2.1,0.7,2.8-0.2l16.5-20
	l16.5,19.9c0.7,0.9,2,1,2.8,0.2s0.9-2.2,0.2-3.1L45.5,37C45,36.4,44.4,36.1,43.7,36.3z"/>
<path class="st1" d="M62,33.7H26c-1.1,0-2-0.9-2-2l0,0c0-1.1,0.9-2,2-2h36c1.1,0,2,0.9,2,2l0,0C64,32.8,63.1,33.7,62,33.7z"/>
</svg>
