<?xml version="1.0" encoding="utf-8"?>
<!-- Generator: Adobe Illustrator 19.0.0, SVG Export Plug-In . SVG Version: 6.00 Build 0)  -->
<svg version="1.1" id="Layer_1" xmlns="http://www.w3.org/2000/svg" xmlns:xlink="http://www.w3.org/1999/xlink" x="0px" y="0px"
	 viewBox="0 0 220 55" style="enable-background:new 0 0 220 55;" xml:space="preserve">
<style type="text/css">
	.st0{fill:#911A1D;stroke:#911A1D;stroke-miterlimit:10;}
	.st1{fill:#1A164C;}
</style>
<g id="XMLID_11_">
	<path id="XMLID_10_" class="st0" d="M20.8,43.9c0,0.5,0,1.1-0.1,1.9c-0.1,1-0.2,1.6-0.2,1.9c0,0.4,0,0.6-0.1,0.7
		c-0.1,0.2-0.3,0.3-0.6,0.5c-1.8,0.8-4.5,1.2-8.2,1.2c-5,0-7.5-2.3-7.5-6.8c0-1.8,0-4.5,0.1-8.1c0.1-3.6,0.1-6.3,0.1-8.1
		c0-0.9-0.4-1.3-1.3-1.4c-0.8,0-1.6,0-2.3,0c-0.5-0.1-0.7-1-0.7-2.6c0-0.6,0-1.3,0.1-1.9c0.1-0.5,0.4-0.8,1-0.9c0.5,0,1.1,0,1.6,0
		c1,0,1.5-0.5,1.5-1.3c0-0.8,0-2.1-0.1-3.9C4,13.2,4,11.9,4,11c0-1.6,0.3-2.3,0.9-2.3c0.2,0,2.2,0.3,6,1c0.5,0.1,0.7,0.3,0.7,0.7
		c0,0.9-0.1,2.3-0.2,4.2c-0.1,1.9-0.2,3.3-0.2,4.2c0,0.6,0.3,0.9,0.9,0.9h7.6c0.4,0,0.5,0.1,0.5,0.4s0,0.7-0.1,1.2
		c-0.1,0.6-0.1,1-0.1,1.3c0,0.3,0,0.8,0,1.5c0,0.6,0,1.1,0,1.5c0,0.4-0.3,0.6-0.9,0.6c-0.8,0-2.1-0.1-3.9-0.2
		c-1.7-0.1-3-0.2-3.9-0.2c-0.2,0-0.3,0.6-0.4,1.8c-0.1,1.5-0.2,3.6-0.2,6.3v4.7c0,1.8,0.2,3.1,0.5,3.8c0.5,1.1,1.6,1.7,3.2,1.7
		c0.6,0,1.6-0.2,2.9-0.4c1.3-0.3,2.2-0.4,2.8-0.4C20.6,43.3,20.8,43.5,20.8,43.9z"/>
	<path id="XMLID_9_" class="st0" d="M43.5,19.8c0,2.3-0.2,4.5-0.5,6.4c-0.1,0.5-0.3,0.7-0.6,0.7c-0.5,0-1.1,0-2-0.2
		c-0.9-0.1-1.6-0.2-2.1-0.2c-2.7,0-4.4,0.8-5.1,2.3c-0.5,0.9-0.7,2.8-0.7,5.7v3.5c0,1.2,0,3,0.2,5.4s0.2,4.2,0.2,5.4
		c0,0.6-0.2,0.9-0.7,0.9c-0.6,0-1.7,0-3,0c-1.3,0-2.3,0-3,0c-0.5,0-0.7-0.3-0.7-0.8c0-1.7,0-4.3,0.1-7.8c0-3.5,0.1-6.1,0.1-7.8
		c0-5.2-0.5-9.5-1.5-12.7c0-0.2-0.1-0.3-0.1-0.4c0-0.3,0.1-0.4,0.4-0.5c0.8-0.1,1.9-0.2,3.3-0.4c2.3-0.4,3.4-0.6,3.2-0.6
		c0.3,0,0.6,0.6,0.7,1.9c0.1,1.3,0.3,1.9,0.6,1.9c0,0,0.1,0,0.2-0.1c0.9-0.6,1.7-1.1,2.6-1.7c1-0.6,1.9-1,2.9-1.3
		c0.8-0.3,1.9-0.4,3.2-0.4C42.7,19.2,43.5,19.4,43.5,19.8z"/>
	<path id="XMLID_8_" class="st0" d="M76.6,20.8c0,1.6-0.1,3.9-0.2,7c-0.1,3.1-0.2,5.5-0.2,7.1c0,1.6,0,3.9,0.2,7
		c0.1,3.1,0.2,5.4,0.2,7c0,0.4-0.2,0.7-0.6,0.8c-0.2,0-2.3,0.1-6.5,0.1c-0.3,0-0.4-0.8-0.5-2.4c0-1.6-0.2-2.4-0.4-2.4
		c-0.1,0-0.3,0.1-0.5,0.3c-3.5,3.1-7.1,4.6-10.5,4.6c-4.7,0-7.8-1.7-9.3-5.1c-0.9-2.1-1.4-5.9-1.4-11.3c0-4.9,0.4-9.1,1.2-12.5
		c0.2-0.8,0.5-1.2,1.1-1.2c0.6,0,1.5,0,2.8,0c1.2,0,2.2,0,2.8,0c0.4,0,0.6,0.2,0.6,0.7c0,0.8-0.1,2.2-0.4,4.1
		c-0.3,2.1-0.5,3.5-0.5,4.4c-0.1,1.3-0.1,2.7-0.1,4.2c0,3.7,0.3,6.2,0.8,7.5c0.9,2.3,2.9,3.4,6.1,3.4c1.3,0,2.9-0.6,4.7-2
		c1.9-1.4,2.9-2.7,3-4C69,36.5,69,30.9,69,21.3c0-1,0.4-1.6,1.3-1.6h5.3C76.2,19.7,76.6,20.1,76.6,20.8z"/>
	<path id="XMLID_7_" class="st0" d="M100.8,43.9c0,0.5,0,1.1-0.1,1.9c-0.1,1-0.2,1.6-0.2,1.9c0,0.4,0,0.6-0.1,0.7
		c-0.1,0.2-0.3,0.3-0.6,0.5c-1.8,0.8-4.5,1.2-8.2,1.2c-5,0-7.5-2.3-7.5-6.8c0-1.8,0-4.5,0.1-8.1s0.1-6.3,0.1-8.1
		c0-0.9-0.4-1.3-1.3-1.4c-0.8,0-1.6,0-2.3,0c-0.5-0.1-0.7-1-0.7-2.6c0-0.6,0-1.3,0.1-1.9c0.1-0.5,0.4-0.8,1-0.9c0.5,0,1.1,0,1.6,0
		c1,0,1.5-0.5,1.5-1.3c0-0.8,0-2.1-0.1-3.9c0-1.7-0.1-3.1-0.1-3.9c0-1.6,0.3-2.3,0.9-2.3c0.2,0,2.2,0.3,6,1c0.5,0.1,0.7,0.3,0.7,0.7
		c0,0.9-0.1,2.3-0.2,4.2c-0.1,1.9-0.2,3.3-0.2,4.2c0,0.6,0.3,0.9,0.9,0.9h7.7c0.4,0,0.5,0.1,0.5,0.4s0,0.7-0.1,1.2
		c-0.1,0.6-0.1,1-0.1,1.3c0,0.3,0,0.8,0,1.5c0,0.6,0,1.1,0,1.5c0,0.4-0.3,0.6-0.9,0.6c-0.8,0-2.1-0.1-3.9-0.2
		c-1.7-0.1-3-0.2-3.9-0.2c-0.2,0-0.3,0.6-0.4,1.8C91.1,29.2,91,31.3,91,34v4.7c0,1.8,0.2,3.1,0.5,3.8c0.5,1.1,1.6,1.7,3.2,1.7
		c0.6,0,1.6-0.2,2.9-0.4c1.3-0.3,2.2-0.4,2.8-0.4C100.7,43.3,100.8,43.5,100.8,43.9z"/>
	<path id="XMLID_6_" class="st0" d="M133.2,48.6c0,0.8-0.2,1.2-0.7,1.2c-0.6,0-1.7,0-3,0c-1.3,0-2.3,0-3,0c-0.5,0-0.8-0.3-0.8-1.1
		c0-1,0-2.6,0.1-4.6c0.1-2.1,0.1-3.6,0.1-4.7c0-1,0-2.5-0.1-4.4c-0.1-2-0.1-3.5-0.1-4.5c0-3.8-1.8-5.7-5.4-5.7
		c-1.2,0-2.7,0.6-4.6,1.8c-2,1.3-3,2.4-3,3.4v18.9c0,0.6-0.2,0.9-0.7,0.9c-0.6,0-1.6,0-3,0c-1.3,0-2.3,0-3,0c-0.5,0-0.7-0.3-0.7-0.9
		V33.5c0-2.5-0.1-7.8-0.4-16c0-2.5-0.2-6.3-0.5-11.2c0-0.3-0.1-0.4-0.1-0.5c0-0.4,0.1-0.6,0.4-0.7c0.4-0.1,1.6-0.2,3.6-0.2
		c0.5,0,1.1-0.1,2-0.2s1.5-0.2,1.9-0.2c0.3,0,0.4,0.2,0.4,0.6c0,2-0.1,5-0.2,9c-0.2,4-0.2,7-0.2,9c0,0.5,0.1,0.7,0.3,0.8
		c1.1-0.9,2.5-2,4.2-3.3c2.1-1.3,4.3-1.9,6.6-1.9c4,0,6.8,1.2,8.2,3.6c1.1,1.8,1.6,4.5,1.6,8.3c0,0.6,0,1.7,0,3.1c0,1.4,0,2.4,0,3.1
		c0,1.4,0,3.4,0.1,6.1C133.1,45.3,133.2,47.3,133.2,48.6z"/>
	<path id="XMLID_5_" class="st1" d="M147.2,6.3l0,0.4c-0.5,7.8-0.7,14.4-0.7,20c0,2.5,0,6.2,0.1,11.2c0.1,5,0.1,8.7,0.1,11.1
		c0,0.5-0.2,0.7-0.5,0.7h-6c-0.4,0-0.6-0.2-0.6-0.7c0-2.5,0-6.2,0.1-11.1c0-5,0.1-8.7,0.1-11.2c0-2.3-0.1-5.6-0.3-10.2
		c-0.2-4.5-0.3-7.9-0.3-10.1c0-0.4,0.2-0.6,0.6-0.6c0.4,0,0.9,0,1.7,0.1c0.8,0.1,1.3,0.1,1.7,0.1c0.4,0,1,0,1.8-0.1
		c0.8-0.1,1.3-0.1,1.7-0.1C147,5.8,147.2,6,147.2,6.3z"/>
	<path id="XMLID_15_" class="st1" d="M183.8,21.4c0,0.1,0,0.3-0.1,0.6c-0.8,4.8-1.2,8.9-1.2,12.4c0,0.2,0.3,4.9,0.8,14.1l0,0.4
		c0,0.6-0.3,0.9-0.8,0.9c-0.6,0-1.5,0.1-2.6,0.2c-1.2,0.1-2,0.2-2.6,0.2c-0.4,0-0.7-0.7-0.9-2.2c-0.2-1.5-0.4-2.2-0.6-2.2
		c-0.1,0-0.7,0.4-1.7,1.2c-1.2,1-2.4,1.8-3.4,2.3c-1.6,0.8-3.3,1.3-5,1.3c-4,0-7.5-1.6-10.2-4.8c-2.6-3.1-3.9-6.7-3.9-10.8
		c0-4.6,1.3-8.5,4-11.5c2.8-3.2,6.4-4.7,11-4.7c3.2,0,6,1.1,8.4,3.3c0.3,0.4,0.9,1,1.7,1.8c0.1,0.1,0.1,0.1,0.2,0.1
		c0.1,0,0.3-0.6,0.5-2c0.2-1.3,0.5-2,0.9-2c0.6,0,1.6,0.2,3.2,0.5C183,20.8,183.8,21.1,183.8,21.4z M175.8,34.5
		c0-2.6-0.8-4.8-2.3-6.6c-1.6-2-3.7-3-6.2-3c-2.5,0-4.6,1-6.3,2.9c-1.6,1.9-2.4,4.1-2.4,6.6c0,2.5,0.8,4.7,2.4,6.6
		c1.7,1.9,3.8,2.9,6.3,2.9c2.4,0,4.5-1,6.1-3C175,39.2,175.8,37,175.8,34.5z"/>
	<path id="XMLID_12_" class="st1" d="M220,34.6c0,4.1-1.3,7.7-3.9,10.8c-2.7,3.3-6.1,4.9-10.2,4.9c-2.7,0-5.1-0.7-7.2-2.1
		c-0.8-0.7-1.7-1.4-2.5-2.1c-0.2,0.1-0.4,0.7-0.5,1.9c-0.1,1.2-0.2,1.8-0.5,1.8h-6.6c-0.3,0-0.4-0.1-0.4-0.4c0,0,0-0.2,0.1-0.6
		c0.3-3.3,0.5-9.7,0.5-19.2c0-3.9-0.2-9.5-0.5-17c-0.2-4.8-0.3-6.8-0.3-6.3c0-0.5,0.3-0.8,0.8-0.9c0.8,0,1.9-0.1,3.4-0.1
		c0.3,0,0.9-0.1,1.8-0.2c0.8-0.1,1.4-0.2,1.8-0.2c0.3,0,0.5,0.2,0.5,0.7c0,0.7,0,1.8-0.2,3.3c-0.1,1.5-0.2,2.6-0.2,3.3
		c0,1.1,0,2.7-0.2,4.9c-0.1,2.2-0.2,3.8-0.2,4.9c0,0.8,0.2,1.2,0.4,1.2c0.2,0,0.3-0.1,0.5-0.3c2.3-2.9,5.3-4.3,9.1-4.3
		c4.3,0,7.8,1.6,10.5,4.8C218.7,26.5,220,30.2,220,34.6z M212.9,34.3c0-2.5-0.8-4.7-2.4-6.6c-1.7-2-3.7-3-6.2-3c-2.5,0-4.6,1-6.3,3
		c-1.6,1.9-2.4,4.1-2.4,6.6c0,2.6,0.8,4.8,2.4,6.7c1.7,2,3.8,2.9,6.3,2.9c2.5,0,4.5-1,6.2-3C212.2,39.1,212.9,36.9,212.9,34.3z"/>
</g>
</svg>
