<?xml version="1.0" encoding="utf-8"?>
<!-- Generator: Adobe Illustrator 21.1.0, SVG Export Plug-In . SVG Version: 6.00 Build 0)  -->
<svg version="1.1" id="Layer_1" xmlns="http://www.w3.org/2000/svg" xmlns:xlink="http://www.w3.org/1999/xlink" x="0px" y="0px"
	 viewBox="0 0 316 316" style="enable-background:new 0 0 316 316;" xml:space="preserve">
<style type="text/css">
	.st0{opacity:0.2;}
	.st1{fill:url(#SVGID_1_);}
	.st2{fill:url(#SVGID_2_);}
</style>
<g class="st0">
	<linearGradient id="SVGID_1_" gradientUnits="userSpaceOnUse" x1="3" y1="158" x2="313" y2="158">
		<stop  offset="0" style="stop-color:#D80811;stop-opacity:0"/>
		<stop  offset="0.4818" style="stop-color:#D60811;stop-opacity:0.4818"/>
		<stop  offset="0.6553" style="stop-color:#CF0811;stop-opacity:0.6553"/>
		<stop  offset="0.779" style="stop-color:#C40811;stop-opacity:0.779"/>
		<stop  offset="0.879" style="stop-color:#B30811;stop-opacity:0.879"/>
		<stop  offset="0.9637" style="stop-color:#9D0811;stop-opacity:0.9637"/>
		<stop  offset="1" style="stop-color:#910811"/>
	</linearGradient>
	<circle class="st1" cx="158" cy="158" r="155"/>
	<linearGradient id="SVGID_2_" gradientUnits="userSpaceOnUse" x1="3" y1="158" x2="313" y2="158">
		<stop  offset="0" style="stop-color:#D80811;stop-opacity:0"/>
		<stop  offset="0.216" style="stop-color:#D30811;stop-opacity:0.216"/>
		<stop  offset="0.4752" style="stop-color:#C40811;stop-opacity:0.4752"/>
		<stop  offset="0.7552" style="stop-color:#AC0811;stop-opacity:0.7552"/>
		<stop  offset="1" style="stop-color:#910811"/>
	</linearGradient>
	<path class="st2" d="M158,11c39.3,0,76.2,15.3,103.9,43.1S305,118.7,305,158s-15.3,76.2-43.1,103.9S197.3,305,158,305
		s-76.2-15.3-103.9-43.1S11,197.3,11,158S26.3,81.8,54.1,54.1S118.7,11,158,11 M158,3C72.4,3,3,72.4,3,158s69.4,155,155,155
		s155-69.4,155-155S243.6,3,158,3L158,3z"/>
</g>
</svg>
