<?xml version="1.0" encoding="utf-8"?>
<!-- Generator: Adobe Illustrator 21.1.0, SVG Export Plug-In . SVG Version: 6.00 Build 0)  -->
<svg version="1.1" id="Layer_1" xmlns="http://www.w3.org/2000/svg" xmlns:xlink="http://www.w3.org/1999/xlink" x="0px" y="0px"
	 viewBox="0 0 676 676" style="enable-background:new 0 0 676 676;" xml:space="preserve">
<style type="text/css">
	.st0{opacity:0.2;}
	.st1{fill:url(#SVGID_1_);}
	.st2{fill:url(#SVGID_2_);}
</style>
<g class="st0">
	<linearGradient id="SVGID_1_" gradientUnits="userSpaceOnUse" x1="2" y1="338" x2="674" y2="338">
		<stop  offset="0" style="stop-color:#D80811;stop-opacity:0"/>
		<stop  offset="0.4818" style="stop-color:#D60811;stop-opacity:0.4818"/>
		<stop  offset="0.6553" style="stop-color:#CF0811;stop-opacity:0.6553"/>
		<stop  offset="0.779" style="stop-color:#C40811;stop-opacity:0.779"/>
		<stop  offset="0.879" style="stop-color:#B30811;stop-opacity:0.879"/>
		<stop  offset="0.9637" style="stop-color:#9D0811;stop-opacity:0.9637"/>
		<stop  offset="1" style="stop-color:#910811"/>
	</linearGradient>
	<circle class="st1" cx="338" cy="338" r="336"/>
	<linearGradient id="SVGID_2_" gradientUnits="userSpaceOnUse" x1="2" y1="338" x2="674" y2="338">
		<stop  offset="0" style="stop-color:#D80811;stop-opacity:0"/>
		<stop  offset="0.216" style="stop-color:#D30811;stop-opacity:0.216"/>
		<stop  offset="0.4752" style="stop-color:#C40811;stop-opacity:0.4752"/>
		<stop  offset="0.7552" style="stop-color:#AC0811;stop-opacity:0.7552"/>
		<stop  offset="1" style="stop-color:#910811"/>
	</linearGradient>
	<path class="st2" d="M338,10c44.3,0,87.2,8.7,127.7,25.8c39.1,16.5,74.1,40.2,104.3,70.3c30.1,30.1,53.8,65.2,70.3,104.3
		C657.3,250.8,666,293.7,666,338s-8.7,87.2-25.8,127.7c-16.5,39.1-40.2,74.1-70.3,104.3c-30.1,30.1-65.2,53.8-104.3,70.3
		C425.2,657.3,382.3,666,338,666s-87.2-8.7-127.7-25.8c-39.1-16.5-74.1-40.2-104.3-70.3c-30.1-30.1-53.8-65.2-70.3-104.3
		C18.7,425.2,10,382.3,10,338s8.7-87.2,25.8-127.7c16.5-39.1,40.2-74.1,70.3-104.3s65.2-53.8,104.3-70.3C250.8,18.7,293.7,10,338,10
		 M338,2C152.4,2,2,152.4,2,338s150.4,336,336,336s336-150.4,336-336S523.6,2,338,2L338,2z"/>
</g>
</svg>
